<?xml version="1.0" standalone="no"?>
<!DOCTYPE svg PUBLIC "-//W3C//DTD SVG 20010904//EN"
 "http://www.w3.org/TR/2001/REC-SVG-20010904/DTD/svg10.dtd">
<svg version="1.0" xmlns="http://www.w3.org/2000/svg"
 width="16.000000pt" height="16.000000pt" viewBox="0 0 16.000000 16.000000"
 preserveAspectRatio="xMidYMid meet">

<g transform="translate(0.000000,16.000000) scale(0.100000,-0.100000)">
<path fill="#fff" d="M0 80 l0 -80 80 0 80 0 0 34 c0 24 -5 36 -17 39 -17 4 -17 5 0 6 13
1 17 10 17 41 l0 40 -80 0 -80 0 0 -80z m53 33 c-17 -6 -17 -70 0 -76 7 -3 5
-6 -5 -6 -15 -1 -18 8 -18 44 0 36 3 45 18 44 10 0 12 -3 5 -6z m50 -40 c-7
-2 -19 -2 -25 0 -7 3 -2 5 12 5 14 0 19 -2 13 -5z"/>
</g>
</svg>
